<?xml version="1.0" ?><svg xmlns="http://www.w3.org/2000/svg" xmlns:xlink="http://www.w3.org/1999/xlink" version="1.1" id="Layer_1" viewBox="0 0 1500 1500" style="enable-background:new 0 0 1500 1500;" xml:space="preserve"><style type="text/css">
	.st0{fill:none;stroke:#C1C2C6;stroke-width:11;stroke-linecap:round;stroke-linejoin:round;stroke-miterlimit:10;}
	.st1{fill:#C1C2C6;}
	.st2{fill:#221F44;}
	.st3{fill:#417FF0;}
	.st4{fill:#EF4743;}
	.st5{fill:#FFB53D;}
	.st6{fill:#C9C9C9;stroke:#FFFFFF;stroke-width:7.9052;stroke-miterlimit:10;}
	.st7{fill:none;stroke:#FFFFFF;stroke-width:7.6431;stroke-miterlimit:10;}
</style><line class="st0" x1="1235.78" y1="339" x2="1235.78" y2="416.46"/><line class="st0" x1="1274.51" y1="377.73" x2="1197.05" y2="377.73"/><circle class="st1" cx="1295.11" cy="501.04" r="20.89"/><line class="st0" x1="269.32" y1="921.5" x2="269.32" y2="999.48"/><line class="st0" x1="230.32" y1="960.49" x2="308.31" y2="960.49"/><circle class="st1" cx="210.07" cy="1106.97" r="20.68"/><path class="st2" d="M702.87,777.87c0,47.89-38.83,86.72-86.72,86.72c-47.89,0-86.72-38.83-86.72-86.72  c0-41.44-3.63-80.28,35.22-88.86c6.05-1.34,45.04,2.14,51.49,2.14C664.05,691.15,702.87,729.97,702.87,777.87z"/><path class="st3" d="M744.81,1119.79H471.49c-42.71,0-77.33-34.62-77.33-77.33V814.39h350.64V1119.79z"/><circle class="st3" cx="569.48" cy="774.8" r="86.72"/><path class="st2" d="M1095.24,1119.79H989.88v-648.5h105.36c42.8,0,77.5,34.7,77.5,77.5v493.5  C1172.74,1085.09,1138.04,1119.79,1095.24,1119.79z"/><circle class="st4" cx="927.67" cy="870.95" r="86.72"/><g><path class="st4" d="M744.81,471.29v101.36c14.8-10.75,33.12-16.95,52.91-16.5c45.51,1.03,82.95,37.89,84.65,83.38   c1.84,49.4-37.66,90.03-86.66,90.03c-19.02,0-36.6-6.14-50.9-16.53v101.36h350.64V544.36c0-40.35-32.71-73.07-73.07-73.07H744.81z"/></g><g><path class="st5" d="M993.38,814.39c13.32,15.47,21.3,35.67,21,57.76c-0.62,45.82-37.58,83.74-83.37,85.45   c-49.41,1.86-90.06-37.65-90.06-86.66c0-21.62,7.93-41.37,21.01-56.56H744.81v305.4h277.58c40.35,0,73.07-32.71,73.07-73.07V814.39   H993.38z"/></g><g><circle class="st5" cx="651.52" cy="436.85" r="86.72"/><g><path class="st5" d="M375.06,782.55l94.2-47.87c-16.29-8.32-30.12-21.84-38.69-39.69c-19.7-41.04-3.81-91.11,35.98-113.24    c43.21-24.03,97.33-7.22,119.53,36.46c8.62,16.96,11.11,35.41,8.33,52.86l94.5-48.02L528.08,306.63L279.37,433.02    c-35.97,18.28-50.31,62.27-32.03,98.24L375.06,782.55z"/></g></g><g><line class="st6" x1="369.87" y1="473.22" x2="415.59" y2="556.08"/><polygon class="st7" points="397.84,524.27 472.64,483.3 433.72,471.43 444.68,432.24 369.87,473.22  "/></g></svg>